<svg width="53" height="54" viewBox="0 0 53 54" fill="none" xmlns="http://www.w3.org/2000/svg">
<g filter="url(#filter0_d_255_245)">
<rect width="50" height="50" fill="#EE3C4C"/>
<rect x="1" y="1" width="48" height="48" stroke="white" stroke-width="2"/>
<path d="M34.6526 14.3499C34.6526 14.3499 36.9652 13.4482 36.7725 15.6381C36.7083 16.5399 36.1301 19.696 35.6805 23.1097L34.1387 33.2221C34.1387 33.2221 34.0103 34.7036 32.854 34.9612C31.6977 35.2188 29.9633 34.0595 29.6421 33.8018C29.3851 33.6086 24.8243 30.7101 23.2183 29.2931C22.7686 28.9066 22.2547 28.1337 23.2825 27.232L30.0275 20.791C30.7984 20.018 31.5692 18.2146 28.3573 20.4045L19.364 26.5235C19.364 26.5235 18.3362 27.1676 16.4091 26.5879L12.2336 25.2997C12.2336 25.2997 10.6919 24.3335 13.3256 23.3673C19.7495 20.3401 27.6507 17.2484 34.6526 14.3499Z" fill="white"/>
</g>
<defs>
<filter id="filter0_d_255_245" x="0" y="0" width="52.381" height="53.5714" filterUnits="userSpaceOnUse" color-interpolation-filters="sRGB">
<feFlood flood-opacity="0" result="BackgroundImageFix"/>
<feColorMatrix in="SourceAlpha" type="matrix" values="0 0 0 0 0 0 0 0 0 0 0 0 0 0 0 0 0 0 127 0" result="hardAlpha"/>
<feOffset dx="2.38095" dy="3.57143"/>
<feComposite in2="hardAlpha" operator="out"/>
<feColorMatrix type="matrix" values="0 0 0 0 0 0 0 0 0 0 0 0 0 0 0 0 0 0 0.97 0"/>
<feBlend mode="normal" in2="BackgroundImageFix" result="effect1_dropShadow_255_245"/>
<feBlend mode="normal" in="SourceGraphic" in2="effect1_dropShadow_255_245" result="shape"/>
</filter>
</defs>
</svg>
