<svg width="53" height="54" viewBox="0 0 53 54" fill="none" xmlns="http://www.w3.org/2000/svg">
<g filter="url(#filter0_d_255_242)">
<rect width="50" height="50" fill="#EE3C4C"/>
<rect x="1" y="1" width="48" height="48" stroke="white" stroke-width="2"/>
<path d="M37.4516 17.8575C36.535 18.2742 35.5469 18.548 34.5231 18.6789C35.5707 18.048 36.3802 17.048 36.7612 15.8456C35.7731 16.4408 34.6778 16.8575 33.5231 17.0956C32.5826 16.0718 31.2612 15.4766 29.7612 15.4766C26.9635 15.4766 24.6778 17.7623 24.6778 20.5837C24.6778 20.9885 24.7254 21.3813 24.8088 21.7504C20.5707 21.5361 16.7969 19.5004 14.285 16.417C13.8445 17.167 13.5945 18.048 13.5945 18.9766C13.5945 20.7504 14.4874 22.3218 15.8683 23.2147C15.0231 23.2147 14.2374 22.9766 13.5469 22.6194V22.6551C13.5469 25.1313 15.3088 27.2028 17.6421 27.667C16.8931 27.8729 16.1064 27.9014 15.3445 27.7504C15.6678 28.7652 16.3011 29.6532 17.1552 30.2896C18.0094 30.9259 19.0415 31.2786 20.1064 31.298C18.3012 32.7272 16.0636 33.4997 13.7612 33.4885C13.3564 33.4885 12.9516 33.4647 12.5469 33.417C14.8088 34.8694 17.4993 35.7147 20.3802 35.7147C29.7612 35.7147 34.9159 27.9289 34.9159 21.1789C34.9159 20.9528 34.9159 20.7385 34.904 20.5123C35.904 19.798 36.7612 18.8932 37.4516 17.8575Z" fill="white"/>
</g>
<defs>
<filter id="filter0_d_255_242" x="0" y="0" width="52.381" height="53.5714" filterUnits="userSpaceOnUse" color-interpolation-filters="sRGB">
<feFlood flood-opacity="0" result="BackgroundImageFix"/>
<feColorMatrix in="SourceAlpha" type="matrix" values="0 0 0 0 0 0 0 0 0 0 0 0 0 0 0 0 0 0 127 0" result="hardAlpha"/>
<feOffset dx="2.38095" dy="3.57143"/>
<feComposite in2="hardAlpha" operator="out"/>
<feColorMatrix type="matrix" values="0 0 0 0 0 0 0 0 0 0 0 0 0 0 0 0 0 0 0.97 0"/>
<feBlend mode="normal" in2="BackgroundImageFix" result="effect1_dropShadow_255_242"/>
<feBlend mode="normal" in="SourceGraphic" in2="effect1_dropShadow_255_242" result="shape"/>
</filter>
</defs>
</svg>
